<svg width="1024" height="1024" viewBox="0 0 1024 1024" fill="none" xmlns="http://www.w3.org/2000/svg">
  <metadata>{"source":"Desktop LiveCat generated source layers","character":"Mochi Prototype"}</metadata>
  <g id="tail_base" data-group="Tail" data-z="10">
    <path d="M430 684 C350 704 286 700 235 654 C188 611 184 552 226 532 C272 510 310 556 286 603 C322 604 361 591 397 566 C421 601 436 639 430 684Z" fill="#d87972" stroke="#5f3840" stroke-width="10" stroke-linejoin="round"/>
    <path d="M396 565 C359 591 323 604 288 603 C303 574 293 545 266 532 C327 522 380 539 396 565Z" fill="#f4ad91" opacity="0.78"/>
  </g>
  <g id="tail_mid" data-group="Tail" data-z="11">
    <path d="M329 628 C290 671 229 665 210 626 C196 596 212 566 242 558 C268 586 296 610 329 628Z" fill="#fff0d6" stroke="#5f3840" stroke-width="8" stroke-linejoin="round"/>
  </g>
  <g id="tail_tip" data-group="Tail" data-z="12">
    <path d="M294 527 C323 554 311 612 273 634 C238 654 197 638 190 604 C218 603 251 590 264 560 C270 546 278 535 294 527Z" fill="#ffd9bd" stroke="#5f3840" stroke-width="8" stroke-linejoin="round"/>
    <path d="M272 540 C292 558 291 592 267 612" fill="none" stroke="#fff0d6" stroke-width="9" stroke-linecap="round" opacity="0.65"/>
  </g>
  <g id="ear_left_outer" data-group="Head/Ears" data-z="30">
    <path d="M429 357 C366 337 332 287 326 205 C391 221 442 264 457 347 C449 354 440 357 429 357Z" fill="#f4ad91" stroke="#5f3840" stroke-width="10" stroke-linejoin="round"/>
  </g>
  <g id="ear_right_outer" data-group="Head/Ears" data-z="31">
    <path d="M595 357 C658 337 692 287 698 205 C633 221 582 264 567 347 C575 354 584 357 595 357Z" fill="#f4ad91" stroke="#5f3840" stroke-width="10" stroke-linejoin="round"/>
  </g>
  <g id="ear_left_inner" data-group="Head/Ears" data-z="32">
    <path d="M419 333 C377 319 353 285 351 238 C391 250 420 283 427 329Z" fill="#e8888f" opacity="0.72"/>
  </g>
  <g id="ear_right_inner" data-group="Head/Ears" data-z="33">
    <path d="M605 333 C647 319 671 285 673 238 C633 250 604 283 597 329Z" fill="#e8888f" opacity="0.72"/>
  </g>
  <g id="body_base" data-group="Body" data-z="40">
    <ellipse cx="512" cy="638" rx="142" ry="154" fill="#f4ad91" stroke="#5f3840" stroke-width="10"/>
    <path d="M412 553 C454 504 574 500 620 552 C585 573 436 573 412 553Z" fill="#ffd9bd" opacity="0.35"/>
  </g>
  <g id="body_side_shadow" data-group="Body" data-z="41">
    <path d="M601 526 C641 572 656 665 624 734 C603 703 584 612 590 545Z" fill="#d87972" opacity="0.35"/>
  </g>
  <g id="chest_patch" data-group="Body" data-z="42">
    <path d="M512 552 C579 577 604 681 548 756 C528 768 496 768 476 756 C420 681 445 577 512 552Z" fill="#fff0d6" stroke="#f0caa8" stroke-width="5" stroke-linejoin="round"/>
  </g>
  <g id="back_paw_left" data-group="Paws" data-z="50">
    <ellipse cx="401" cy="760" rx="48" ry="36" fill="#fff0d6" stroke="#5f3840" stroke-width="8"/>
  </g>
  <g id="back_paw_right" data-group="Paws" data-z="51">
    <ellipse cx="623" cy="760" rx="48" ry="36" fill="#fff0d6" stroke="#5f3840" stroke-width="8"/>
  </g>
  <g id="keyboard_shadow" data-group="Keyboard" data-z="60">
    <ellipse cx="512" cy="838" rx="204" ry="28" fill="#2d1b28" opacity="0.18"/>
  </g>
  <g id="keyboard_body" data-group="Keyboard" data-z="61">
    <rect x="316" y="720" width="392" height="112" rx="22" fill="#38253a" stroke="#5f3840" stroke-width="9"/>
    <rect x="330" y="732" width="364" height="72" rx="14" fill="#6c3e62" opacity="0.45"/>
    <rect x="374" y="815" width="276" height="16" rx="8" fill="#211625" opacity="0.55"/>
  </g>
  <g id="key_01" data-group="Keyboard/Keys" data-z="71">
    <rect x="342" y="740" width="30" height="24" rx="6" fill="#eed7cf" stroke="#5f3840" stroke-width="4"/>
    <rect x="346" y="743" width="22" height="4" rx="2" fill="#ffffff" opacity="0.24"/>
  </g>
  <g id="key_02" data-group="Keyboard/Keys" data-z="72">
    <rect x="381" y="740" width="30" height="24" rx="6" fill="#eed7cf" stroke="#5f3840" stroke-width="4"/>
    <rect x="385" y="743" width="22" height="4" rx="2" fill="#ffffff" opacity="0.24"/>
  </g>
  <g id="key_03" data-group="Keyboard/Keys" data-z="73">
    <rect x="420" y="740" width="30" height="24" rx="6" fill="#eed7cf" stroke="#5f3840" stroke-width="4"/>
    <rect x="424" y="743" width="22" height="4" rx="2" fill="#ffffff" opacity="0.24"/>
  </g>
  <g id="key_04" data-group="Keyboard/Keys" data-z="74">
    <rect x="459" y="740" width="30" height="24" rx="6" fill="#eed7cf" stroke="#5f3840" stroke-width="4"/>
    <rect x="463" y="743" width="22" height="4" rx="2" fill="#ffffff" opacity="0.24"/>
  </g>
  <g id="key_05" data-group="Keyboard/Keys" data-z="75">
    <rect x="498" y="740" width="30" height="24" rx="6" fill="#eed7cf" stroke="#5f3840" stroke-width="4"/>
    <rect x="502" y="743" width="22" height="4" rx="2" fill="#ffffff" opacity="0.24"/>
  </g>
  <g id="key_06" data-group="Keyboard/Keys" data-z="76">
    <rect x="537" y="740" width="30" height="24" rx="6" fill="#eed7cf" stroke="#5f3840" stroke-width="4"/>
    <rect x="541" y="743" width="22" height="4" rx="2" fill="#ffffff" opacity="0.24"/>
  </g>
  <g id="key_07" data-group="Keyboard/Keys" data-z="77">
    <rect x="576" y="740" width="30" height="24" rx="6" fill="#eed7cf" stroke="#5f3840" stroke-width="4"/>
    <rect x="580" y="743" width="22" height="4" rx="2" fill="#ffffff" opacity="0.24"/>
  </g>
  <g id="key_08" data-group="Keyboard/Keys" data-z="78">
    <rect x="615" y="740" width="30" height="24" rx="6" fill="#eed7cf" stroke="#5f3840" stroke-width="4"/>
    <rect x="619" y="743" width="22" height="4" rx="2" fill="#ffffff" opacity="0.24"/>
  </g>
  <g id="key_09" data-group="Keyboard/Keys" data-z="79">
    <rect x="654" y="740" width="30" height="24" rx="6" fill="#eed7cf" stroke="#5f3840" stroke-width="4"/>
    <rect x="658" y="743" width="22" height="4" rx="2" fill="#ffffff" opacity="0.24"/>
  </g>
  <g id="key_10" data-group="Keyboard/Keys" data-z="80">
    <rect x="356" y="772" width="32" height="24" rx="6" fill="#eed7cf" stroke="#5f3840" stroke-width="4"/>
    <rect x="360" y="775" width="24" height="4" rx="2" fill="#ffffff" opacity="0.24"/>
  </g>
  <g id="key_11" data-group="Keyboard/Keys" data-z="81">
    <rect x="398" y="772" width="32" height="24" rx="6" fill="#eed7cf" stroke="#5f3840" stroke-width="4"/>
    <rect x="402" y="775" width="24" height="4" rx="2" fill="#ffffff" opacity="0.24"/>
  </g>
  <g id="key_12" data-group="Keyboard/Keys" data-z="82">
    <rect x="440" y="772" width="32" height="24" rx="6" fill="#a86788" stroke="#5f3840" stroke-width="4"/>
    <rect x="444" y="775" width="24" height="4" rx="2" fill="#ffffff" opacity="0.24"/>
  </g>
  <g id="key_13" data-group="Keyboard/Keys" data-z="83">
    <rect x="482" y="772" width="32" height="24" rx="6" fill="#a86788" stroke="#5f3840" stroke-width="4"/>
    <rect x="486" y="775" width="24" height="4" rx="2" fill="#ffffff" opacity="0.24"/>
  </g>
  <g id="key_14" data-group="Keyboard/Keys" data-z="84">
    <rect x="524" y="772" width="32" height="24" rx="6" fill="#eed7cf" stroke="#5f3840" stroke-width="4"/>
    <rect x="528" y="775" width="24" height="4" rx="2" fill="#ffffff" opacity="0.24"/>
  </g>
  <g id="key_15" data-group="Keyboard/Keys" data-z="85">
    <rect x="566" y="772" width="32" height="24" rx="6" fill="#eed7cf" stroke="#5f3840" stroke-width="4"/>
    <rect x="570" y="775" width="24" height="4" rx="2" fill="#ffffff" opacity="0.24"/>
  </g>
  <g id="key_16" data-group="Keyboard/Keys" data-z="86">
    <rect x="608" y="772" width="32" height="24" rx="6" fill="#eed7cf" stroke="#5f3840" stroke-width="4"/>
    <rect x="612" y="775" width="24" height="4" rx="2" fill="#ffffff" opacity="0.24"/>
  </g>
  <g id="key_17" data-group="Keyboard/Keys" data-z="87">
    <rect x="650" y="772" width="32" height="24" rx="6" fill="#eed7cf" stroke="#5f3840" stroke-width="4"/>
    <rect x="654" y="775" width="24" height="4" rx="2" fill="#ffffff" opacity="0.24"/>
  </g>
  <g id="key_18" data-group="Keyboard/Keys" data-z="88">
    <rect x="386" y="803" width="46" height="22" rx="6" fill="#eed7cf" stroke="#5f3840" stroke-width="4"/>
    <rect x="390" y="806" width="38" height="4" rx="2" fill="#ffffff" opacity="0.24"/>
  </g>
  <g id="key_19" data-group="Keyboard/Keys" data-z="89">
    <rect x="444" y="803" width="46" height="22" rx="6" fill="#eed7cf" stroke="#5f3840" stroke-width="4"/>
    <rect x="448" y="806" width="38" height="4" rx="2" fill="#ffffff" opacity="0.24"/>
  </g>
  <g id="key_20" data-group="Keyboard/Keys" data-z="90">
    <rect x="502" y="803" width="46" height="22" rx="6" fill="#eed7cf" stroke="#5f3840" stroke-width="4"/>
    <rect x="506" y="806" width="38" height="4" rx="2" fill="#ffffff" opacity="0.24"/>
  </g>
  <g id="key_21" data-group="Keyboard/Keys" data-z="91">
    <rect x="560" y="803" width="46" height="22" rx="6" fill="#eed7cf" stroke="#5f3840" stroke-width="4"/>
    <rect x="564" y="806" width="38" height="4" rx="2" fill="#ffffff" opacity="0.24"/>
  </g>
  <g id="key_22" data-group="Keyboard/Keys" data-z="92">
    <rect x="618" y="803" width="46" height="22" rx="6" fill="#eed7cf" stroke="#5f3840" stroke-width="4"/>
    <rect x="622" y="806" width="38" height="4" rx="2" fill="#ffffff" opacity="0.24"/>
  </g>
  <g id="front_paw_left" data-group="Paws" data-z="110">
    <path d="M447 627 C487 650 495 725 459 778 C437 789 406 777 400 750 C405 703 415 659 447 627Z" fill="#fff0d6" stroke="#5f3840" stroke-width="8" stroke-linejoin="round"/>
    <path d="M427 746 C436 754 450 754 459 746" fill="none" stroke="#f0caa8" stroke-width="4" stroke-linecap="round" stroke-linejoin="round" />
  </g>
  <g id="front_paw_right" data-group="Paws" data-z="111">
    <path d="M577 627 C537 650 529 725 565 778 C587 789 618 777 624 750 C619 703 609 659 577 627Z" fill="#fff0d6" stroke="#5f3840" stroke-width="8" stroke-linejoin="round"/>
    <path d="M597 746 C588 754 574 754 565 746" fill="none" stroke="#f0caa8" stroke-width="4" stroke-linecap="round" stroke-linejoin="round" />
  </g>
  <g id="head_base" data-group="Head" data-z="120">
    <ellipse cx="512" cy="442" rx="202" ry="154" fill="#f4ad91" stroke="#5f3840" stroke-width="11"/>
    <path d="M338 421 C382 312 642 312 686 421 C640 367 386 367 338 421Z" fill="#ffd9bd" opacity="0.42"/>
    <path d="M321 472 C379 587 645 587 703 472 C675 577 349 577 321 472Z" fill="#d87972" opacity="0.17"/>
  </g>
  <g id="cheek_fur_left" data-group="Head" data-z="121">
    <path d="M388 439 C364 452 336 455 312 447 C327 472 350 492 383 505 C374 481 380 459 388 439Z" fill="#d87972" opacity="0.55"/>
  </g>
  <g id="cheek_fur_right" data-group="Head" data-z="122">
    <path d="M636 439 C660 452 688 455 712 447 C697 472 674 492 641 505 C650 481 644 459 636 439Z" fill="#d87972" opacity="0.55"/>
  </g>
  <g id="forehead_tuft" data-group="Head" data-z="123">
    <path d="M510 365 C476 338 468 298 493 259 C502 282 518 287 534 260 C541 296 535 335 510 365Z" fill="#ffd9bd" stroke="#5f3840" stroke-width="8" stroke-linejoin="round"/>
  </g>
  <g id="muzzle" data-group="Face" data-z="130">
    <ellipse cx="512" cy="501" rx="70" ry="42" fill="#fff0d6" stroke="#f0caa8" stroke-width="4"/>
  </g>
  <g id="nose" data-group="Face" data-z="131">
    <path d="M493 481 C502 470 522 470 531 481 C526 497 498 497 493 481Z" fill="#e8888f" stroke="#5f3840" stroke-width="4" stroke-linejoin="round"/>
  </g>
  <g id="mouth" data-group="Face" data-z="132">
    <path d="M512 500 C510 521 491 525 480 514" fill="none" stroke="#5f3840" stroke-width="6" stroke-linecap="round" stroke-linejoin="round" />
    <path d="M512 500 C514 521 533 525 544 514" fill="none" stroke="#5f3840" stroke-width="6" stroke-linecap="round" stroke-linejoin="round" />
  </g>
  <g id="eye_left_white" data-group="Eyes/Left" data-z="140">
    <ellipse cx="428" cy="442" rx="32" ry="42" fill="#fffaf2" stroke="#5f3840" stroke-width="7"/>
  </g>
  <g id="eye_right_white" data-group="Eyes/Right" data-z="141">
    <ellipse cx="596" cy="442" rx="32" ry="42" fill="#fffaf2" stroke="#5f3840" stroke-width="7"/>
  </g>
  <g id="iris_left" data-group="Eyes/Left" data-z="142">
    <ellipse cx="428" cy="444" rx="19" ry="29" fill="#3a2730" />
    <ellipse cx="428" cy="452" rx="15" ry="18" fill="#7b4331" opacity="0.68"/>
  </g>
  <g id="iris_right" data-group="Eyes/Right" data-z="143">
    <ellipse cx="596" cy="444" rx="19" ry="29" fill="#3a2730" />
    <ellipse cx="596" cy="452" rx="15" ry="18" fill="#7b4331" opacity="0.68"/>
  </g>
  <g id="eye_highlight_left" data-group="Eyes/Left" data-z="144">
    <ellipse cx="420" cy="426" rx="8" ry="9" fill="#ffffff" />
  </g>
  <g id="eye_highlight_right" data-group="Eyes/Right" data-z="145">
    <ellipse cx="588" cy="426" rx="8" ry="9" fill="#ffffff" />
  </g>
  <g id="eyelid_left" data-group="Eyes/Left" data-z="146">
    <path d="M394 423 C407 388 449 388 462 423 C447 408 410 408 394 423Z" fill="#f4ad91" stroke="#5f3840" stroke-width="6" stroke-linejoin="round"/>
  </g>
  <g id="eyelid_right" data-group="Eyes/Right" data-z="147">
    <path d="M562 423 C575 388 617 388 630 423 C615 408 578 408 562 423Z" fill="#f4ad91" stroke="#5f3840" stroke-width="6" stroke-linejoin="round"/>
  </g>
  <g id="brow_left" data-group="Face" data-z="150">
    <path d="M402 382 C414 366 438 365 448 379" fill="none" stroke="#d87972" stroke-width="7" stroke-linecap="round" stroke-linejoin="round" />
  </g>
  <g id="brow_right" data-group="Face" data-z="151">
    <path d="M622 382 C610 366 586 365 576 379" fill="none" stroke="#d87972" stroke-width="7" stroke-linecap="round" stroke-linejoin="round" />
  </g>
  <g id="blush_left" data-group="Face" data-z="160">
    <ellipse cx="383" cy="498" rx="26" ry="12" fill="#e8888f" opacity="0.35"/>
  </g>
  <g id="blush_right" data-group="Face" data-z="161">
    <ellipse cx="641" cy="498" rx="26" ry="12" fill="#e8888f" opacity="0.35"/>
  </g>
  <g id="whiskers_left" data-group="Face" data-z="170">
    <path d="M432 493 C392 477 346 476 310 488" fill="none" stroke="#fff0d6" stroke-width="4" stroke-linecap="round" stroke-linejoin="round" />
    <path d="M434 508 C392 506 346 517 312 537" fill="none" stroke="#fff0d6" stroke-width="4" stroke-linecap="round" stroke-linejoin="round" />
  </g>
  <g id="whiskers_right" data-group="Face" data-z="171">
    <path d="M592 493 C632 477 678 476 714 488" fill="none" stroke="#fff0d6" stroke-width="4" stroke-linecap="round" stroke-linejoin="round" />
    <path d="M590 508 C632 506 678 517 712 537" fill="none" stroke="#fff0d6" stroke-width="4" stroke-linecap="round" stroke-linejoin="round" />
  </g>
</svg>
