<svg xmlns="http://www.w3.org/2000/svg" width="1536" height="1872" viewBox="0 0 1536 1872"><rect width="1536" height="1872" fill="#fffaf0"/><rect x="0" y="0" width="192" height="208" fill="none" stroke="#c7b8ad" stroke-width="2"/><rect x="192" y="0" width="192" height="208" fill="none" stroke="#c7b8ad" stroke-width="2"/><rect x="384" y="0" width="192" height="208" fill="none" stroke="#c7b8ad" stroke-width="2"/><rect x="576" y="0" width="192" height="208" fill="none" stroke="#c7b8ad" stroke-width="2"/><rect x="768" y="0" width="192" height="208" fill="none" stroke="#c7b8ad" stroke-width="2"/><rect x="960" y="0" width="192" height="208" fill="none" stroke="#c7b8ad" stroke-width="2"/><rect x="1152" y="0" width="192" height="208" fill="none" stroke="#c7b8ad" stroke-width="2"/><rect x="1344" y="0" width="192" height="208" fill="none" stroke="#c7b8ad" stroke-width="2"/><text x="12" y="34" font-family="Arial" font-size="24" fill="#6a535b">idle</text><rect x="0" y="208" width="192" height="208" fill="none" stroke="#c7b8ad" stroke-width="2"/><rect x="192" y="208" width="192" height="208" fill="none" stroke="#c7b8ad" stroke-width="2"/><rect x="384" y="208" width="192" height="208" fill="none" stroke="#c7b8ad" stroke-width="2"/><rect x="576" y="208" width="192" height="208" fill="none" stroke="#c7b8ad" stroke-width="2"/><rect x="768" y="208" width="192" height="208" fill="none" stroke="#c7b8ad" stroke-width="2"/><rect x="960" y="208" width="192" height="208" fill="none" stroke="#c7b8ad" stroke-width="2"/><rect x="1152" y="208" width="192" height="208" fill="none" stroke="#c7b8ad" stroke-width="2"/><rect x="1344" y="208" width="192" height="208" fill="none" stroke="#c7b8ad" stroke-width="2"/><text x="12" y="242" font-family="Arial" font-size="24" fill="#6a535b">tap_left</text><rect x="0" y="416" width="192" height="208" fill="none" stroke="#c7b8ad" stroke-width="2"/><rect x="192" y="416" width="192" height="208" fill="none" stroke="#c7b8ad" stroke-width="2"/><rect x="384" y="416" width="192" height="208" fill="none" stroke="#c7b8ad" stroke-width="2"/><rect x="576" y="416" width="192" height="208" fill="none" stroke="#c7b8ad" stroke-width="2"/><rect x="768" y="416" width="192" height="208" fill="none" stroke="#c7b8ad" stroke-width="2"/><rect x="960" y="416" width="192" height="208" fill="none" stroke="#c7b8ad" stroke-width="2"/><rect x="1152" y="416" width="192" height="208" fill="none" stroke="#c7b8ad" stroke-width="2"/><rect x="1344" y="416" width="192" height="208" fill="none" stroke="#c7b8ad" stroke-width="2"/><text x="12" y="450" font-family="Arial" font-size="24" fill="#6a535b">tap_right</text><rect x="0" y="624" width="192" height="208" fill="none" stroke="#c7b8ad" stroke-width="2"/><rect x="192" y="624" width="192" height="208" fill="none" stroke="#c7b8ad" stroke-width="2"/><rect x="384" y="624" width="192" height="208" fill="none" stroke="#c7b8ad" stroke-width="2"/><rect x="576" y="624" width="192" height="208" fill="none" stroke="#c7b8ad" stroke-width="2"/><rect x="768" y="624" width="192" height="208" fill="none" stroke="#c7b8ad" stroke-width="2"/><rect x="960" y="624" width="192" height="208" fill="none" stroke="#c7b8ad" stroke-width="2"/><rect x="1152" y="624" width="192" height="208" fill="none" stroke="#c7b8ad" stroke-width="2"/><rect x="1344" y="624" width="192" height="208" fill="none" stroke="#c7b8ad" stroke-width="2"/><text x="12" y="658" font-family="Arial" font-size="24" fill="#6a535b">typing</text><rect x="0" y="832" width="192" height="208" fill="none" stroke="#c7b8ad" stroke-width="2"/><rect x="192" y="832" width="192" height="208" fill="none" stroke="#c7b8ad" stroke-width="2"/><rect x="384" y="832" width="192" height="208" fill="none" stroke="#c7b8ad" stroke-width="2"/><rect x="576" y="832" width="192" height="208" fill="none" stroke="#c7b8ad" stroke-width="2"/><rect x="768" y="832" width="192" height="208" fill="none" stroke="#c7b8ad" stroke-width="2"/><rect x="960" y="832" width="192" height="208" fill="none" stroke="#c7b8ad" stroke-width="2"/><rect x="1152" y="832" width="192" height="208" fill="none" stroke="#c7b8ad" stroke-width="2"/><rect x="1344" y="832" width="192" height="208" fill="none" stroke="#c7b8ad" stroke-width="2"/><text x="12" y="866" font-family="Arial" font-size="24" fill="#6a535b">focus</text><rect x="0" y="1040" width="192" height="208" fill="none" stroke="#c7b8ad" stroke-width="2"/><rect x="192" y="1040" width="192" height="208" fill="none" stroke="#c7b8ad" stroke-width="2"/><rect x="384" y="1040" width="192" height="208" fill="none" stroke="#c7b8ad" stroke-width="2"/><rect x="576" y="1040" width="192" height="208" fill="none" stroke="#c7b8ad" stroke-width="2"/><rect x="768" y="1040" width="192" height="208" fill="none" stroke="#c7b8ad" stroke-width="2"/><rect x="960" y="1040" width="192" height="208" fill="none" stroke="#c7b8ad" stroke-width="2"/><rect x="1152" y="1040" width="192" height="208" fill="none" stroke="#c7b8ad" stroke-width="2"/><rect x="1344" y="1040" width="192" height="208" fill="none" stroke="#c7b8ad" stroke-width="2"/><text x="12" y="1074" font-family="Arial" font-size="24" fill="#6a535b">break</text><rect x="0" y="1248" width="192" height="208" fill="none" stroke="#c7b8ad" stroke-width="2"/><rect x="192" y="1248" width="192" height="208" fill="none" stroke="#c7b8ad" stroke-width="2"/><rect x="384" y="1248" width="192" height="208" fill="none" stroke="#c7b8ad" stroke-width="2"/><rect x="576" y="1248" width="192" height="208" fill="none" stroke="#c7b8ad" stroke-width="2"/><rect x="768" y="1248" width="192" height="208" fill="none" stroke="#c7b8ad" stroke-width="2"/><rect x="960" y="1248" width="192" height="208" fill="none" stroke="#c7b8ad" stroke-width="2"/><rect x="1152" y="1248" width="192" height="208" fill="none" stroke="#c7b8ad" stroke-width="2"/><rect x="1344" y="1248" width="192" height="208" fill="none" stroke="#c7b8ad" stroke-width="2"/><text x="12" y="1282" font-family="Arial" font-size="24" fill="#6a535b">happy</text><rect x="0" y="1456" width="192" height="208" fill="none" stroke="#c7b8ad" stroke-width="2"/><rect x="192" y="1456" width="192" height="208" fill="none" stroke="#c7b8ad" stroke-width="2"/><rect x="384" y="1456" width="192" height="208" fill="none" stroke="#c7b8ad" stroke-width="2"/><rect x="576" y="1456" width="192" height="208" fill="none" stroke="#c7b8ad" stroke-width="2"/><rect x="768" y="1456" width="192" height="208" fill="none" stroke="#c7b8ad" stroke-width="2"/><rect x="960" y="1456" width="192" height="208" fill="none" stroke="#c7b8ad" stroke-width="2"/><rect x="1152" y="1456" width="192" height="208" fill="none" stroke="#c7b8ad" stroke-width="2"/><rect x="1344" y="1456" width="192" height="208" fill="none" stroke="#c7b8ad" stroke-width="2"/><text x="12" y="1490" font-family="Arial" font-size="24" fill="#6a535b">sleepy</text><rect x="0" y="1664" width="192" height="208" fill="none" stroke="#c7b8ad" stroke-width="2"/><rect x="192" y="1664" width="192" height="208" fill="none" stroke="#c7b8ad" stroke-width="2"/><rect x="384" y="1664" width="192" height="208" fill="none" stroke="#c7b8ad" stroke-width="2"/><rect x="576" y="1664" width="192" height="208" fill="none" stroke="#c7b8ad" stroke-width="2"/><rect x="768" y="1664" width="192" height="208" fill="none" stroke="#c7b8ad" stroke-width="2"/><rect x="960" y="1664" width="192" height="208" fill="none" stroke="#c7b8ad" stroke-width="2"/><rect x="1152" y="1664" width="192" height="208" fill="none" stroke="#c7b8ad" stroke-width="2"/><rect x="1344" y="1664" width="192" height="208" fill="none" stroke="#c7b8ad" stroke-width="2"/><text x="12" y="1698" font-family="Arial" font-size="24" fill="#6a535b">failed / dragged</text></svg>
