<svg xmlns="http://www.w3.org/2000/svg" width="384" height="416" viewBox="0 0 384 416">
<rect width="384" height="416" rx="28" fill="#fffaf0"/>
<g transform="translate(96 80)">
<ellipse cx="96" cy="178" rx="58" ry="12" fill="#2f2430" opacity=".16"/>
<path d="M130 116 C170 106 177 142 143 151" fill="none" stroke="#ef9d91" stroke-width="18" stroke-linecap="round"/>
<ellipse cx="96" cy="109" rx="52" ry="58" fill="#ffd8bf"/>
<ellipse cx="96" cy="63" rx="58" ry="48" fill="#ffd8bf"/>
<path d="M54 33 L72 9 L86 33" fill="#ef9d91"/>
<path d="M106 33 L120 9 L138 33" fill="#ef9d91"/>
<ellipse cx="76" cy="62" rx="8" ry="18" fill="#2f2430"/>
<ellipse cx="116" cy="62" rx="8" ry="18" fill="#2f2430"/>
<ellipse cx="96" cy="96" rx="24" ry="18" fill="#fff6dd"/>
<path d="M86 108 Q96 116 106 108" fill="none" stroke="#4d3541" stroke-width="4" stroke-linecap="round"/>
<rect x="42" y="147" width="108" height="28" rx="8" fill="#2f2430"/>
<rect x="53" y="152" width="17" height="17" rx="4" fill="#fff1dd" transform="translate(0 0)"/><rect x="76" y="152" width="17" height="17" rx="4" fill="#fff1dd" transform="translate(0 0)"/><rect x="99" y="152" width="17" height="17" rx="4" fill="#fff1dd" transform="translate(0 0)"/><rect x="122" y="152" width="17" height="17" rx="4" fill="#fff1dd" transform="translate(0 0)"/>
<ellipse cx="66" cy="127" rx="15" ry="23" fill="#fff6dd" transform="rotate(6 66 127)"/>
<ellipse cx="126" cy="127" rx="15" ry="23" fill="#fff6dd" transform="rotate(-6 126 127)"/>

</g>

<text x="192" y="382" text-anchor="middle" font-family="Arial" font-size="24" fill="#4d3541">Pixel Mochi</text>
</svg>
